<?xml version="1.0" encoding="UTF-8" standalone="no"?>
<!-- Created with Inkscape (http://www.inkscape.org/) -->

<svg
   xmlns:dc="http://purl.org/dc/elements/1.1/"
   xmlns:cc="http://creativecommons.org/ns#"
   xmlns:rdf="http://www.w3.org/1999/02/22-rdf-syntax-ns#"
   xmlns:svg="http://www.w3.org/2000/svg"
   xmlns="http://www.w3.org/2000/svg"
   xmlns:xlink="http://www.w3.org/1999/xlink"
   xmlns:sodipodi="http://sodipodi.sourceforge.net/DTD/sodipodi-0.dtd"
   xmlns:inkscape="http://www.inkscape.org/namespaces/inkscape"
   width="26.178207mm"
   height="7.5671587mm"
   viewBox="0 0 26.178206 7.5671587"
   version="1.1"
   id="svg8"
   inkscape:version="0.92.5 (2060ec1f9f, 2020-04-08)"
   sodipodi:docname="grafana.svg">
  <defs
     id="defs2">
    <linearGradient
       gradientTransform="matrix(0.0161053,0,0,0.0161053,31.729352,160.25608)"
       id="a"
       gradientUnits="userSpaceOnUse"
       x1="175.5"
       x2="175.5"
       y1="0.30000001"
       y2="0.99000001">
      <stop
         offset="0"
         stop-color="#f05a28"
         id="stop959" />
      <stop
         offset="1"
         stop-color="#fbca0a"
         id="stop961" />
    </linearGradient>
    <linearGradient
       inkscape:collect="always"
       xlink:href="#a"
       id="linearGradient1559"
       x1="35.31599"
       y1="160.89471"
       x2="34.958076"
       y2="166.85385"
       gradientUnits="userSpaceOnUse" />
  </defs>
  <sodipodi:namedview
     id="base"
     pagecolor="#ffffff"
     bordercolor="#666666"
     borderopacity="1.0"
     inkscape:pageopacity="0.0"
     inkscape:pageshadow="2"
     inkscape:zoom="7.9195959"
     inkscape:cx="40.889066"
     inkscape:cy="27.147509"
     inkscape:document-units="px"
     inkscape:current-layer="layer1"
     showgrid="false"
     inkscape:window-width="1871"
     inkscape:window-height="1019"
     inkscape:window-x="49"
     inkscape:window-y="29"
     inkscape:window-maximized="1"
     fit-margin-top="0"
     fit-margin-left="0"
     fit-margin-right="0"
     fit-margin-bottom="0" />
  <metadata
     id="metadata5">
    <rdf:RDF>
      <cc:Work
         rdf:about="">
        <dc:format>image/svg+xml</dc:format>
        <dc:type
           rdf:resource="http://purl.org/dc/dcmitype/StillImage" />
        <dc:title></dc:title>
      </cc:Work>
    </rdf:RDF>
  </metadata>
  <g
     inkscape:label="Camada 1"
     inkscape:groupmode="layer"
     id="layer1"
     transform="translate(-30.994054,-159.40901)">
    <g
       id="g1605">
      <g
         transform="matrix(0.0547,0,0,0.0547,52.785818,151.26783)"
         id="g880">
        <rect
           style="fill:#4d4d4d;fill-opacity:1;stroke-width:0.41891018"
           id="rect815"
           width="478.57782"
           height="138.33928"
           x="-398.3869"
           y="148.83333" />
        <text
           xml:space="preserve"
           style="font-style:normal;font-variant:normal;font-weight:bold;font-stretch:normal;font-size:58.15393448px;line-height:1.25;font-family:sans-serif;-inkscape-font-specification:'sans-serif, Bold';font-variant-ligatures:normal;font-variant-caps:normal;font-variant-numeric:normal;font-feature-settings:normal;text-align:start;letter-spacing:0px;word-spacing:0px;writing-mode:lr-tb;text-anchor:start;fill:#fffcff;fill-opacity:1;stroke:none;stroke-width:1.45381522"
           x="-261.81094"
           y="241.30716"
           id="text848"><tspan
             sodipodi:role="line"
             id="tspan846"
             x="-261.81094"
             y="241.30716"
             style="font-style:normal;font-variant:normal;font-weight:bold;font-stretch:normal;font-size:58.15393448px;font-family:sans-serif;-inkscape-font-specification:'sans-serif, Bold';font-variant-ligatures:normal;font-variant-caps:normal;font-variant-numeric:normal;font-feature-settings:normal;text-align:start;writing-mode:lr-tb;text-anchor:start;fill:#fffcff;fill-opacity:1;stroke-width:1.45381522">GRAFANA</tspan></text>
      </g>
      <path
         id="path964"
         d="m 37.237366,162.85225 c -0.0097,-0.0983 -0.02578,-0.21099 -0.05798,-0.3366 -0.03222,-0.12404 -0.08053,-0.26091 -0.15139,-0.40264 -0.07086,-0.14173 -0.162663,-0.28828 -0.281841,-0.43162 -0.04671,-0.0564 -0.09824,-0.11117 -0.153002,-0.16427 0.08214,-0.32694 -0.09985,-0.61039 -0.09985,-0.61039 -0.314053,-0.0193 -0.513759,0.0983 -0.587844,0.15138 -0.01288,-0.004 -0.02417,-0.0112 -0.03705,-0.0161 -0.05315,-0.021 -0.107902,-0.0419 -0.165883,-0.0596 -0.05637,-0.0178 -0.114342,-0.0339 -0.173938,-0.0483 -0.05959,-0.0144 -0.119173,-0.0258 -0.180379,-0.0354 -0.01134,-0.001 -0.02094,-0.003 -0.03222,-0.004 -0.136897,-0.43808 -0.529864,-0.62168 -0.529864,-0.62168 -0.439675,0.27862 -0.521812,0.66837 -0.521812,0.66837 0,0 -0.0017,0.008 -0.0049,0.0225 -0.02417,0.007 -0.04832,0.0144 -0.07247,0.021 -0.03383,0.01 -0.06765,0.0225 -0.09985,0.0354 -0.03383,0.0126 -0.06603,0.0258 -0.09985,0.0403 -0.06603,0.029 -0.132066,0.0612 -0.196484,0.0966 -0.06281,0.0354 -0.124017,0.0741 -0.183601,0.11438 l -0.0161,-0.007 c -0.608781,-0.23192 -1.148309,0.0468 -1.148309,0.0468 -0.04993,0.64744 0.243191,1.0549 0.301171,1.12899 -0.01449,0.0403 -0.02738,0.0805 -0.04027,0.12082 -0.0451,0.14658 -0.07892,0.29635 -0.09985,0.45257 -0.0032,0.0225 -0.0064,0.0451 -0.0081,0.0676 -0.563685,0.27863 -0.72957,0.84715 -0.72957,0.84715 0.468664,0.53952 1.016245,0.57334 1.016245,0.57334 l 0.0017,-10e-4 c 0.06925,0.12405 0.149779,0.24158 0.23997,0.3527 0.03865,0.0468 0.07731,0.0902 0.119172,0.13371 -0.170715,0.4896 0.02416,0.89546 0.02416,0.89546 0.521811,0.0193 0.864855,-0.2287 0.937328,-0.28507 0.05154,0.0178 0.104682,0.0339 0.157832,0.0468 0.161053,0.0419 0.325328,0.0661 0.489602,0.0725 0.04026,0.001 0.08214,0.003 0.122406,0.001 h 0.05798 l 0.02578,-0.001 v 0.001 c 0.246412,0.35109 0.678035,0.40101 0.678035,0.40101 0.307611,-0.32372 0.325327,-0.64581 0.325327,-0.71507 v -0.004 -0.01 -0.0144 c 0.06442,-0.0451 0.125626,-0.0934 0.1836,-0.14656 0.122392,-0.11116 0.230305,-0.23836 0.320495,-0.37526 l 0.02416,-0.0386 c 0.347875,0.0193 0.594285,-0.21581 0.594285,-0.21581 -0.05798,-0.36238 -0.264127,-0.53953 -0.307611,-0.57335 -0.04349,-0.0339 -0.0017,-0.001 -0.0049,-0.003 -0.0032,-0.001 -0.0032,-0.003 -0.0032,-0.003 -0.0017,-0.001 -0.0049,-0.003 -0.0081,-0.004 0.0017,-0.0225 0.0032,-0.0435 0.0049,-0.0661 0.0032,-0.0386 0.0032,-0.079 0.0032,-0.1176 v -0.0515 -0.01 l -0.0017,-0.0242 -0.0017,-0.0322 c 0,-0.0112 -0.0017,-0.021 -0.0032,-0.0307 -0.0017,-0.01 -0.0017,-0.021 -0.0032,-0.0307 l -0.0032,-0.0307 -0.0049,-0.0307 c -0.0064,-0.0403 -0.01288,-0.079 -0.02254,-0.11914 -0.03704,-0.15623 -0.09824,-0.3044 -0.177158,-0.43808 -0.08053,-0.1337 -0.180381,-0.25124 -0.294729,-0.35109 -0.112732,-0.0998 -0.239968,-0.18038 -0.372031,-0.23997 -0.133677,-0.0596 -0.272179,-0.0983 -0.410685,-0.11592 -0.06926,-0.01 -0.138507,-0.0126 -0.207758,-0.0112 h -0.05154 l -0.02577,0.001 c -0.0097,0 -0.01932,10e-4 -0.02739,10e-4 -0.03544,0.003 -0.07086,0.008 -0.104682,0.0144 -0.138507,0.0258 -0.268958,0.0757 -0.383306,0.14495 -0.114342,0.0693 -0.214201,0.15462 -0.294727,0.25125 -0.08053,0.0966 -0.143338,0.20453 -0.186822,0.31565 -0.04348,0.11117 -0.06764,0.22709 -0.07408,0.33821 -0.0017,0.0274 -0.0017,0.0564 -0.0017,0.0837 v 0.021 l 0.0017,0.0225 c 0.0017,0.0126 0.0017,0.0273 0.0032,0.0403 0.0049,0.0564 0.0161,0.11116 0.03061,0.16266 0.03061,0.10472 0.07892,0.1997 0.138507,0.28023 0.05959,0.0805 0.132067,0.14656 0.207758,0.19971 0.0757,0.0515 0.157831,0.0886 0.238358,0.1127 0.08053,0.0242 0.161052,0.0339 0.236747,0.0339 h 0.04188 c 0.0049,0 0.0097,0 0.01449,-0.001 0.0081,0 0.0161,-0.001 0.02417,-0.001 0.0017,0 0.0049,0 0.0064,-10e-4 l 0.0081,-0.001 c 0.0049,0 0.0097,-0.001 0.01449,-0.001 0.0097,-0.001 0.01771,-0.003 0.02739,-0.004 0.0097,-0.001 0.01771,-0.003 0.02578,-0.007 0.01771,-0.003 0.03383,-0.01 0.04993,-0.0146 0.03222,-0.0112 0.06442,-0.0242 0.0918,-0.0386 0.029,-0.0146 0.05476,-0.0322 0.08053,-0.0483 0.0064,-0.004 0.01449,-0.01 0.02093,-0.0161 0.02577,-0.021 0.0306,-0.0597 0.0097,-0.0854 -0.01771,-0.0225 -0.04993,-0.029 -0.0757,-0.0146 l -0.01932,0.01 c -0.02255,0.0112 -0.0451,0.021 -0.06925,0.029 -0.02417,0.008 -0.04993,0.0144 -0.0757,0.0193 -0.01288,0.001 -0.02578,0.003 -0.04027,0.004 -0.0064,0 -0.01288,0.001 -0.02093,0.001 h -0.03866 c -0.0081,0 -0.0161,0 -0.02416,-0.001 h -0.0097 c -0.0032,0 -0.0081,0 -0.01134,-0.001 -0.0081,-0.001 -0.01449,-0.001 -0.02254,-0.003 -0.05959,-0.008 -0.119187,-0.0258 -0.175549,-0.0515 -0.05798,-0.0258 -0.112732,-0.0612 -0.162663,-0.10626 -0.04993,-0.0451 -0.09341,-0.0983 -0.127237,-0.15944 -0.03383,-0.0612 -0.05798,-0.1288 -0.06925,-0.1997 -0.0049,-0.0354 -0.0081,-0.0725 -0.0064,-0.10795 0,-0.01 0.0017,-0.0193 0.0017,-0.029 v -0.0126 c 0,-0.004 0.0017,-0.01 0.0017,-0.0144 0.0017,-0.0193 0.0049,-0.0386 0.0081,-0.058 0.02739,-0.15461 0.104682,-0.306 0.223864,-0.42035 0.0306,-0.029 0.06281,-0.0547 0.09663,-0.079 0.03383,-0.0242 0.07087,-0.0451 0.109512,-0.0629 0.03866,-0.0178 0.07731,-0.0322 0.119187,-0.0435 0.04027,-0.0112 0.08214,-0.0178 0.125626,-0.0225 0.02094,-0.001 0.04188,-0.003 0.06442,-0.003 h 0.04993 l 0.01771,0.001 c 0.04671,0.003 0.0918,0.01 0.136897,0.021 0.09019,0.0193 0.178769,0.0532 0.260906,0.0983 0.164274,0.0918 0.304389,0.23352 0.389748,0.40425 0.04348,0.0854 0.07409,0.17714 0.08858,0.27217 0.0032,0.0242 0.0064,0.0483 0.0081,0.0725 l 0.0017,0.0178 0.0017,0.0176 v 0.0693 c 0,0.0112 -0.0017,0.0307 -0.0017,0.0419 -0.0017,0.0258 -0.0049,0.0532 -0.0081,0.079 -0.0032,0.0258 -0.0081,0.0515 -0.01288,0.0773 -0.0049,0.0258 -0.01134,0.0515 -0.01771,0.0757 -0.01288,0.05 -0.02898,0.0998 -0.04832,0.14978 -0.03865,0.0966 -0.09019,0.19004 -0.15139,0.2754 -0.124017,0.17071 -0.293116,0.30922 -0.48638,0.3978 -0.09663,0.0435 -0.198096,0.0757 -0.30278,0.0918 -0.05154,0.01 -0.104681,0.0144 -0.157831,0.0161 h -0.08052 c -0.029,0 -0.05637,-10e-4 -0.08536,-0.004 -0.112732,-0.008 -0.223864,-0.029 -0.33338,-0.0596 -0.107902,-0.0307 -0.212591,-0.0741 -0.312444,-0.12558 -0.198096,-0.10627 -0.376864,-0.25124 -0.51537,-0.42678 -0.06925,-0.0869 -0.130457,-0.18199 -0.180378,-0.28024 -0.04993,-0.0983 -0.09019,-0.20293 -0.119186,-0.30761 -0.02899,-0.10627 -0.04671,-0.2142 -0.05476,-0.32372 l -0.0017,-0.0209 v -0.0918 -0.0112 -0.0403 c 0.0017,-0.0532 0.0064,-0.10948 0.01288,-0.16427 0.0064,-0.0547 0.0161,-0.11116 0.02737,-0.16588 0.01134,-0.0547 0.02417,-0.10948 0.04027,-0.16428 0.03061,-0.10794 0.06925,-0.21258 0.114343,-0.31082 0.0918,-0.19649 0.210979,-0.37204 0.354316,-0.51216 0.03543,-0.0354 0.07247,-0.0676 0.111122,-0.0998 0.03865,-0.0307 0.07892,-0.0596 0.120796,-0.0869 0.04027,-0.0274 0.08375,-0.0515 0.127237,-0.0741 0.02093,-0.0112 0.04349,-0.0225 0.06603,-0.0322 l 0.03383,-0.0146 0.03383,-0.0144 c 0.0451,-0.0193 0.0918,-0.0354 0.140117,-0.05 0.01134,-0.003 0.02416,-0.007 0.03543,-0.0112 0.01134,-0.003 0.02416,-0.007 0.03543,-0.01 0.02415,-0.007 0.04832,-0.0126 0.07247,-0.0178 0.01134,-0.003 0.02416,-0.004 0.03704,-0.008 0.01288,-0.003 0.02416,-0.004 0.03705,-0.008 0.01288,-0.001 0.02416,-0.004 0.03704,-0.007 l 0.01771,-0.003 0.01932,-0.003 c 0.01288,-10e-4 0.02417,-0.003 0.03705,-0.004 0.01449,-0.001 0.02739,-0.003 0.04187,-0.004 0.01134,-0.001 0.03061,-0.003 0.04188,-0.004 0.0081,-10e-4 0.01771,-10e-4 0.02577,-0.003 l 0.01771,-0.001 0.0081,-0.001 h 0.0097 c 0.01449,-0.001 0.02739,-0.001 0.04188,-0.003 l 0.02094,-0.001 h 0.0161 c 0.01134,0 0.02416,-0.001 0.03543,-0.001 0.04671,-0.001 0.09502,-0.001 0.141727,0 0.09341,0.003 0.185211,0.0146 0.27379,0.0307 0.178769,0.0339 0.346264,0.0902 0.499265,0.16589 0.153,0.0741 0.288284,0.16588 0.407463,0.26573 0.0081,0.007 0.01449,0.0126 0.02255,0.0193 0.0064,0.007 0.01449,0.0126 0.02093,0.0193 0.01449,0.0126 0.02739,0.0258 0.04187,0.0386 0.01449,0.0126 0.02739,0.0258 0.04027,0.0386 0.01288,0.0126 0.02577,0.0258 0.03865,0.0403 0.04993,0.0532 0.09663,0.10626 0.138507,0.16104 0.08375,0.10795 0.15139,0.21743 0.204538,0.3205 l 0.0097,0.0193 0.0097,0.0193 c 0.0064,0.0126 0.01288,0.0258 0.01771,0.0386 0.0064,0.0126 0.01134,0.0242 0.01771,0.0371 0.0049,0.0126 0.01134,0.0242 0.0161,0.0371 0.01932,0.0483 0.03866,0.0951 0.05315,0.13846 0.02416,0.0709 0.04188,0.13371 0.05637,0.18844 0.0049,0.0225 0.02578,0.0371 0.04832,0.0339 0.02417,-10e-4 0.04188,-0.021 0.04188,-0.0451 0.0017,-0.058 0,-0.12727 -0.0081,-0.20616 z"
         style="fill:url(#linearGradient1559);fill-opacity:1;stroke-width:0.0161053"
         inkscape:connector-curvature="0" />
    </g>
  </g>
</svg>
