<?xml version="1.0" encoding="UTF-8" standalone="no"?>
<!-- Created with Inkscape (http://www.inkscape.org/) -->

<svg
   xmlns:dc="http://purl.org/dc/elements/1.1/"
   xmlns:cc="http://creativecommons.org/ns#"
   xmlns:rdf="http://www.w3.org/1999/02/22-rdf-syntax-ns#"
   xmlns:svg="http://www.w3.org/2000/svg"
   xmlns="http://www.w3.org/2000/svg"
   xmlns:sodipodi="http://sodipodi.sourceforge.net/DTD/sodipodi-0.dtd"
   xmlns:inkscape="http://www.inkscape.org/namespaces/inkscape"
   width="26.178207mm"
   height="7.5671587mm"
   viewBox="0 0 26.178206 7.5671587"
   version="1.1"
   id="svg8"
   inkscape:version="0.92.5 (2060ec1f9f, 2020-04-08)"
   sodipodi:docname="macromedia-dreamweaver-mx.svg">
  <defs
     id="defs2">
    <linearGradient
       gradientTransform="matrix(0.0161053,0,0,0.0161053,31.729352,160.25608)"
       id="a"
       gradientUnits="userSpaceOnUse"
       x1="175.5"
       x2="175.5"
       y1="0.30000001"
       y2="0.99000001">
      <stop
         offset="0"
         stop-color="#f05a28"
         id="stop959" />
      <stop
         offset="1"
         stop-color="#fbca0a"
         id="stop961" />
    </linearGradient>
    <clipPath
       id="clip-path">
      <path
         id="path17"
         transform="rotate(-135.213 29.277 29.656)"
         class="cls-1"
         d="M10.366 10.745h37.821v37.821H10.366z" />
    </clipPath>
    <clipPath
       id="clip-path-2">
      <path
         id="path20"
         transform="rotate(-135.213 102.36 29.34)"
         class="cls-1"
         d="M91.267 18.248h22.184v22.184H91.267z" />
    </clipPath>
    <style
       id="style23">.cls-1{fill:none}.cls-2{fill:#244b5a}.cls-4{fill:#75caca}.cls-5{fill:#74cbca}.cls-6{fill:#73cbca}.cls-7{fill:#72c9c9}.cls-8{fill:#70caca}.cls-9{fill:#6fcac8}.cls-10{fill:#6ec8c8}.cls-11{fill:#6cc9c9}.cls-12{fill:#6dc9c8}.cls-13{fill:#69c7c8}.cls-14{fill:#69c8c7}.cls-15{fill:#68c8c7}.cls-16{fill:#67c7c7}.cls-17{fill:#65c7c7}.cls-18{fill:#64c7c7}.cls-19{fill:#63c6c6}.cls-20{fill:#60c6c6}.cls-21{fill:#60c6c5}.cls-22{fill:#5fc6c5}.cls-23{fill:#5cc5c4}.cls-24{fill:#5ac5c4}.cls-25{fill:#57c4c4}.cls-26{fill:#58c4c3}.cls-27{fill:#55c4c3}.cls-28{fill:#53c3c2}.cls-29{fill:#52c3c2}.cls-30{fill:#50c3c2}.cls-31{fill:#50c1c0}.cls-34{fill:#47c1be}.cls-35{fill:#46c0be}.cls-36{fill:#43c0be}.cls-37{fill:#40bfbd}.cls-38{fill:#3bbfbd}.cls-39{fill:#39bfbc}.cls-40{fill:#34bebd}.cls-41{fill:#32bebb}.cls-42{fill:#2dbdbb}.cls-43{fill:#24bcbb}.cls-44{fill:#21bcb9}.cls-45{fill:#18bbb9}.cls-47{fill:#03bbb8}.cls-48{fill:#06b8b6}.cls-49{fill:#03b7b5}.cls-50{fill:#04b7b4}.cls-51{fill:#00b6b5}.cls-52{fill:#03b6b4}.cls-53{fill:#05b6b2}.cls-54{fill:#01b5b1}.cls-55{fill:#00b4b1}.cls-56{fill:#00b3b0}.cls-62{fill:#00afac}</style>
    <clipPath
       id="clip-path-3">
      <path
         inkscape:connector-curvature="0"
         id="path17-6"
         transform="rotate(-135.213,29.277,29.656)"
         class="cls-1"
         d="M 10.366,10.745 H 48.187 V 48.566 H 10.366 Z" />
    </clipPath>
    <clipPath
       id="clip-path-2-7">
      <path
         inkscape:connector-curvature="0"
         id="path20-5"
         transform="rotate(-135.213,102.36,29.34)"
         class="cls-1"
         d="m 91.267,18.248 h 22.184 V 40.432 H 91.267 Z" />
    </clipPath>
  </defs>
  <sodipodi:namedview
     id="base"
     pagecolor="#ffffff"
     bordercolor="#666666"
     borderopacity="1.0"
     inkscape:pageopacity="0.0"
     inkscape:pageshadow="2"
     inkscape:zoom="7.9195959"
     inkscape:cx="60.442043"
     inkscape:cy="1.1419354"
     inkscape:document-units="px"
     inkscape:current-layer="g880"
     showgrid="false"
     inkscape:window-width="1871"
     inkscape:window-height="1019"
     inkscape:window-x="49"
     inkscape:window-y="29"
     inkscape:window-maximized="1"
     fit-margin-top="0"
     fit-margin-left="0"
     fit-margin-right="0"
     fit-margin-bottom="0" />
  <metadata
     id="metadata5">
    <rdf:RDF>
      <cc:Work
         rdf:about="">
        <dc:format>image/svg+xml</dc:format>
        <dc:type
           rdf:resource="http://purl.org/dc/dcmitype/StillImage" />
        <dc:title></dc:title>
      </cc:Work>
    </rdf:RDF>
  </metadata>
  <g
     inkscape:label="Camada 1"
     inkscape:groupmode="layer"
     id="layer1"
     transform="translate(-30.994054,-159.40901)">
    <g
       id="g1605">
      <g
         transform="matrix(0.0547,0,0,0.0547,52.785818,151.26783)"
         id="g880">
        <rect
           style="fill:#e4ffec;fill-opacity:1;stroke-width:0.41891018"
           id="rect815"
           width="478.57782"
           height="138.33928"
           x="-398.3869"
           y="148.83333" />
        <g
           style="overflow:visible"
           id="g2112"
           transform="matrix(0.60169159,0,0,0.60169159,-389.79029,180.46548)">
          <path
             id="path2099"
             d="m 19.081,71.638 c 0,-2.52 1.08,-4.318 2.88,-6.117 2.88,-2.52 7.2,-3.961 12.959,-3.961 h 21.24 c -1.8,3.601 -3.961,6.48 -5.76,9 -5.4,6.12 -12.239,9.36 -20.16,9.36 -7.56,0 -11.159,-2.879 -11.159,-8.282 m 282.239,3.604 9.36,-25.922 c 0,0.721 1.08,3.601 2.88,8.64 l 6.48,17.282 z M 392.041,39.24 378,71.281 375.12,81.359 372.24,71.281 358.2,39.24 h -14.039 v 55.44 h 10.44 V 53.281 l 2.88,8.279 13.32,33.12 h 8.64 l 13.32,-33.12 2.521,-8.279 V 94.68 h 10.44 V 39.24 Z m -87.481,0 -21.959,55.44 h 11.52 l 4.32,-11.88 h 24.48 l 4.68,11.88 h 10.8 L 316.8,39.24 Z m -25.2,0 h -45 v 55.44 h 46.08 L 277.2,86.401 H 244.8 V 69.119 h 28.08 V 61.2 H 244.8 V 47.161 h 32.041 z m -75.959,7.921 c 6.839,0 10.08,2.52 10.08,7.198 0,4.682 -3.24,6.841 -9.36,6.841 H 185.402 V 47.161 Z m -28.8,-7.921 v 55.44 h 10.8 V 68.761 H 199.8 L 213.12,94.68 H 225 L 211.32,68.04 c 9,-1.081 13.321,-5.76 13.321,-13.682 0,-10.078 -6.12,-15.119 -18,-15.119 h -32.04 z m -61.56,0 v 55.44 h 25.2 c 18,0 27,-9 27,-27 0,-19.081 -8.64,-28.44 -26.279,-28.44 z m 24.48,7.921 c 10.799,0 16.2,6.841 16.2,20.159 0,12.961 -5.401,19.441 -16.2,19.441 h -13.68 v -39.6 z M 68.041,6.48 c 0,12.24 -1.44,24.479 -4.68,36.719 H 34.92 c -10.8,0 -19.08,2.88 -25.2,8.64 C 3.24,57.242 0,63.722 0,71.638 c 0,7.201 2.521,13.321 7.56,18.363 5.76,5.76 13.32,8.637 22.68,8.637 C 54.72,98.638 71.641,82.44 81,50.401 84.961,35.64 87.12,21.24 87.12,6.481 H 68.041 Z m 508.321,51.479 6.838,17.282 h -19.078 l 6.838,-17.282 2.52,-8.64 c 0.359,0.722 1.08,3.601 2.882,8.64 z M 708.839,39.24 v 55.44 h 10.802 V 68.761 h 14.399 l 12.961,25.919 h 12.24 L 745.2,68.041 c 9,-1.081 13.682,-5.76 13.682,-13.682 0,-10.078 -6.12,-15.119 -18,-15.119 z m 58.322,3.96 c 0,-2.52 -1.441,-3.959 -3.961,-3.599 -2.52,-0.36 -3.601,1.08 -3.601,3.599 0,2.521 1.081,3.961 3.601,3.961 2.52,0 3.961,-1.44 3.961,-3.961 z m -3.961,3.24 c -1.799,0 -2.88,-1.08 -2.88,-3.24 0,-2.159 1.081,-3.24 2.88,-3.24 2.162,0 3.24,1.081 3.24,3.24 0,2.16 -1.078,3.24 -3.24,3.24 z m 0.36,-4.68 0.721,0.721 c 0,0.359 -0.36,0.359 -0.721,0.359 h -1.081 v -1.08 z m -1.799,-0.719 v 4.32 h 0.718 v -1.8 h 1.081 l 0.721,1.8 h 1.081 l -1.081,-1.8 c 0.721,-0.36 1.081,-0.721 1.081,-1.08 0,-1.08 -0.36,-1.44 -1.441,-1.44 z m -24.12,6.12 c 6.48,0 9.721,2.52 9.721,7.198 0,4.682 -2.883,6.841 -9,6.841 H 719.641 V 47.161 Z m -39.6,0 2.52,-7.92 H 655.2 v 55.44 h 46.441 l -3.24,-8.279 H 666.002 V 69.119 H 694.08 V 61.2 H 666.002 V 47.161 Z M 542.521,39.24 h -45.36 v 55.44 h 46.081 L 540.72,86.401 H 507.96 V 69.119 h 27.721 V 61.2 H 507.96 V 47.161 h 32.042 z m 53.279,0 20.88,55.44 h 12.24 L 649.8,39.24 H 638.641 L 622.8,82.8 620.28,73.079 607.32,39.24 Z m -28.081,0 -21.958,55.44 h 11.159 l 4.679,-11.88 h 24.48 l 4.321,11.88 h 11.52 L 579.959,39.24 Z m -86.399,0 -10.438,32.041 -2.52,9 c -0.36,-4.321 -1.081,-7.201 -2.162,-9 L 456.479,39.24 h -9.718 l -9,32.041 -2.52,9 -2.159,-9 -10.441,-32.041 h -10.8 l 17.64,55.44 10.8,0.36 9.721,-32.76 1.799,-7.201 2.159,7.201 9.36,32.399 h 11.159 l 17.643,-55.44 H 481.32 Z"
             inkscape:connector-curvature="0"
             style="clip-rule:evenodd;fill:#94c941;fill-rule:evenodd" />
          <path
             id="path2101"
             d="m 303.841,5.76 c 0,-1.8 1.08,-2.88 3.24,-2.88 1.799,0 2.88,1.08 2.88,2.88 0,2.161 -1.081,3.24 -2.88,3.24 -2.161,0 -3.24,-1.08 -3.24,-3.24 m 3.24,3.6 c 2.52,0 3.599,-1.08 3.599,-3.601 0,-2.52 -1.08,-3.599 -3.599,-3.599 -2.521,0 -3.961,1.08 -3.961,3.599 0,2.522 1.44,3.601 3.961,3.601 z m -12.24,4.681 c 2.52,-0.36 3.959,-0.721 4.68,-1.44 l -0.36,3.959 c -0.36,2.161 -2.161,3.24 -5.401,3.601 -2.52,-0.36 -3.959,-1.081 -3.959,-2.88 -10e-4,-1.801 1.8,-2.88 5.04,-3.24 z m 13.32,-9.361 c 0,0.36 -0.36,0.721 -0.721,0.721 h -1.08 V 4.32 h 0.721 c 0.719,-0.361 1.08,0 1.08,0.36 z M 307.44,3.601 h -2.159 v 4.32 h 1.08 v -1.8 h 0.721 l 0.719,1.8 h 1.08 L 307.8,5.76 c 0.721,-0.359 1.08,-0.719 1.08,-1.08 0,-1.079 -0.359,-1.44 -1.44,-1.079 z M 254.521,16.92 c -1.081,1.8 -2.88,2.88 -5.401,2.88 -3.599,0 -5.399,-1.8 -5.76,-5.041 h 14.399 c 0,-5.76 -2.88,-8.64 -8.64,-8.64 -5.76,0 -8.64,2.52 -8.64,7.56 0,5.399 2.88,8.279 8.64,8.279 3.961,0 6.841,-1.44 8.281,-4.32 z m 0.359,-3.961 h -11.159 c 0,-3.239 1.8,-4.679 5.399,-4.679 3.24,0.001 5.401,1.441 5.76,4.679 z M 281.161,6.48 v 15.479 h 2.88 V 6.48 Z m 8.279,4.32 c 1.081,-1.8 3.24,-2.52 5.76,-2.52 2.521,0 3.961,0.719 3.961,2.52 0,0.719 -1.44,1.08 -4.68,1.44 -5.041,0.36 -7.56,2.161 -7.56,5.041 0,3.239 1.8,4.679 5.76,4.679 2.88,0 5.041,-0.719 6.841,-2.52 0.359,1.8 1.08,2.52 2.52,2.52 l 2.159,-0.359 v -1.8 h -1.08 c -0.719,0 -1.08,-0.721 -1.08,-1.8 v -6.48 c 0,-3.599 -2.161,-5.399 -6.841,-5.399 -3.239,0 -5.76,1.08 -7.559,3.24 z m -15.839,1.44 v 3.599 c 0,2.521 -1.8,3.961 -5.401,4.321 -3.959,-0.36 -5.76,-2.161 -5.76,-6.12 0,-3.961 1.8,-5.76 5.76,-5.76 3.24,0.001 5.04,1.441 5.401,3.96 z m 0,-12.24 v 8.64 c -1.08,-1.44 -2.88,-2.159 -5.76,-2.159 -5.401,0 -8.281,2.52 -8.281,7.56 0,5.399 2.88,7.919 8.281,7.919 2.88,0 5.039,-0.719 6.12,-2.52 v 2.52 h 2.88 V 0 Z m 7.56,3.959 h 2.88 V 1.08 h -2.88 z m -82.08,2.161 c -6.12,0 -9,2.52 -9,7.92 0,5.399 2.88,7.919 9,7.919 6.119,0 9,-2.52 9,-7.919 0,-5.4 -2.881,-7.92 -9,-7.92 z m 6.119,7.921 c -0.359,3.959 -2.159,5.76 -6.119,5.76 -3.961,0 -6.12,-1.8 -6.12,-5.76 0,-3.961 2.159,-5.76 6.12,-5.76 3.96,0 5.76,1.799 6.119,5.76 z M 234,12.959 v 9 h 2.88 V 12.6 c 0,-3.961 -2.159,-6.12 -6.12,-6.12 -2.52,0 -4.679,1.08 -5.76,2.88 -0.719,-1.8 -2.52,-2.88 -5.399,-2.88 -2.52,0 -4.32,0.719 -5.401,2.52 V 6.48 h -2.88 v 15.479 h 2.88 V 11.88 c 0.721,-2.159 2.161,-3.24 4.68,-3.24 2.521,0 3.961,1.44 3.961,4.32 v 9 h 2.88 v -9 c 0,-2.88 1.44,-4.32 4.32,-4.32 2.519,0 3.959,1.44 3.959,4.319 z m -79.919,3.601 c -0.36,2.161 -2.161,3.24 -5.761,3.601 -2.52,-0.36 -3.959,-1.081 -3.599,-2.88 0,-1.8 1.8,-2.88 5.039,-3.24 2.161,-0.36 3.601,-0.721 4.321,-1.44 z m 25.56,-10.08 v 15.479 h 2.88 V 11.88 c 1.08,-2.159 2.88,-3.24 5.399,-3.24 H 189 V 6.48 h -0.359 c -2.521,0 -4.68,0.719 -6.12,2.52 V 6.48 Z m -5.761,10.44 c -1.08,1.8 -2.52,2.88 -5.039,2.88 -3.961,0 -5.76,-1.8 -5.76,-5.399 0,-3.961 1.799,-6.12 5.399,-6.12 2.88,0 4.68,1.08 5.399,2.88 l 2.88,-0.36 c -1.08,-3.24 -3.599,-4.68 -8.279,-4.68 -5.399,0 -8.281,2.52 -8.281,7.92 0,5.399 2.881,7.919 8.641,7.919 3.959,0 6.839,-1.44 7.919,-4.679 z M 132.12,8.64 c 2.521,0 3.961,1.44 3.961,4.32 v 9 h 2.52 v -9.359 c 0,-3.961 -1.8,-6.12 -5.76,-6.12 -2.521,0 -4.68,1.08 -6.12,2.88 C 126,7.56 124.2,6.48 121.32,6.48 c -2.159,0 -3.959,0.719 -5.399,2.52 V 6.48 h -2.88 v 15.479 h 2.88 V 11.88 c 0.721,-2.159 2.161,-3.24 4.68,-3.24 2.519,0 3.959,1.44 3.959,4.32 v 9 h 2.88 v -9 c 0,-2.88 1.44,-4.32 4.68,-4.32 z M 144,10.8 c 1.44,-1.8 3.601,-2.52 6.12,-2.52 2.521,0 3.961,0.719 3.961,2.52 0,0.719 -1.44,1.08 -4.68,1.44 -5.401,0.36 -7.92,2.161 -7.56,5.041 -0.36,3.239 1.44,4.679 5.399,4.679 3.24,0 5.401,-0.719 7.2,-2.52 0.36,1.8 1.081,2.52 2.161,2.52 l 2.52,-0.359 v -1.8 h -1.08 c -0.721,0 -1.08,-0.721 -1.08,-1.8 v -6.48 c 0,-3.599 -2.161,-5.399 -6.841,-5.399 -3.24,0 -5.76,1.08 -7.56,3.24 z"
             inkscape:connector-curvature="0"
             style="clip-rule:evenodd;fill:#969ca4;fill-rule:evenodd" />
        </g>
      </g>
    </g>
  </g>
</svg>
