<?xml version="1.0" encoding="UTF-8" standalone="no"?>
<!-- Created with Inkscape (http://www.inkscape.org/) -->

<svg
   xmlns:dc="http://purl.org/dc/elements/1.1/"
   xmlns:cc="http://creativecommons.org/ns#"
   xmlns:rdf="http://www.w3.org/1999/02/22-rdf-syntax-ns#"
   xmlns:svg="http://www.w3.org/2000/svg"
   xmlns="http://www.w3.org/2000/svg"
   xmlns:sodipodi="http://sodipodi.sourceforge.net/DTD/sodipodi-0.dtd"
   xmlns:inkscape="http://www.inkscape.org/namespaces/inkscape"
   width="25.84412mm"
   height="7.5671587mm"
   viewBox="0 0 25.844119 7.5671587"
   version="1.1"
   id="svg8"
   inkscape:version="0.92.5 (2060ec1f9f, 2020-04-08)"
   sodipodi:docname="maya.svg">
  <defs
     id="defs2" />
  <sodipodi:namedview
     id="base"
     pagecolor="#ffffff"
     bordercolor="#666666"
     borderopacity="1.0"
     inkscape:pageopacity="0.0"
     inkscape:pageshadow="2"
     inkscape:zoom="11.2"
     inkscape:cx="60.262715"
     inkscape:cy="4.1952839"
     inkscape:document-units="px"
     inkscape:current-layer="layer1"
     showgrid="false"
     inkscape:window-width="1871"
     inkscape:window-height="1019"
     inkscape:window-x="49"
     inkscape:window-y="29"
     inkscape:window-maximized="1"
     fit-margin-top="0"
     fit-margin-left="0"
     fit-margin-right="0"
     fit-margin-bottom="0" />
  <metadata
     id="metadata5">
    <rdf:RDF>
      <cc:Work
         rdf:about="">
        <dc:format>image/svg+xml</dc:format>
        <dc:type
           rdf:resource="http://purl.org/dc/dcmitype/StillImage" />
        <dc:title></dc:title>
      </cc:Work>
    </rdf:RDF>
  </metadata>
  <g
     inkscape:label="Camada 1"
     inkscape:groupmode="layer"
     id="layer1"
     transform="translate(-30.994054,-159.40901)">
    <g
       id="g880"
       transform="matrix(0.0547,0,0,0.0547,52.785818,151.26783)">
      <rect
         y="148.83333"
         x="-398.3869"
         height="138.33928"
         width="472.47021"
         id="rect815"
         style="fill:#ffffff;fill-opacity:1;stroke-width:0.41622853" />
      <g
         transform="matrix(0.33056126,0,0,0.33056126,-240.11759,177.34398)"
         id="g828">
        <path
           inkscape:connector-curvature="0"
           id="path842"
           d="m -404.98348,120.693 c 0,-84.984167 0.0302,-119.7108808 0.067,-77.170476 0.0369,42.540405 0.0369,112.072906 0,154.516676 -0.0369,42.44375 -0.067,7.63797 -0.067,-77.3462 z m 25.2072,154.19263 c 0.47555,-0.0589 1.18992,-0.0577 1.5875,0.003 0.39757,0.0603 0.008,0.10853 -0.86464,0.10705 -0.87312,-0.003 -1.19841,-0.0509 -0.72286,-0.10975 z M -69.756395,120.693 c 0,-84.984167 0.03016,-119.7108808 0.06704,-77.170476 0.03688,42.540405 0.03688,112.072906 0,154.516676 -0.03688,42.44375 -0.06704,7.63797 -0.06704,-77.3462 z M -374.09248,274.63042 c 0.25466,-0.0666 0.67138,-0.0666 0.92604,0 0.25466,0.0665 0.0463,0.12099 -0.46302,0.12099 -0.50932,0 -0.71768,-0.0545 -0.46302,-0.12099 z m 3.83646,-0.25744 c 0.1819,-0.0734 0.47956,-0.0734 0.66146,0 0.1819,0.0734 0.0331,0.13345 -0.33073,0.13345 -0.3638,0 -0.51263,-0.0601 -0.33073,-0.13345 z m 2.91042,-0.26459 c 0.1819,-0.0734 0.47955,-0.0734 0.66145,0 0.1819,0.0734 0.0331,0.13346 -0.33073,0.13346 -0.3638,0 -0.51263,-0.0601 -0.33072,-0.13346 z m 2.66237,-0.27008 c 0.19099,-0.0764 0.4192,-0.067 0.50711,0.0209 0.0879,0.0879 -0.0683,0.15047 -0.34726,0.13899 -0.30823,-0.0127 -0.37092,-0.0754 -0.15985,-0.15987 z m 2.11666,-0.26459 c 0.191,-0.0764 0.4192,-0.067 0.50712,0.0209 0.0879,0.0879 -0.0683,0.15047 -0.34726,0.13898 -0.30823,-0.0127 -0.37092,-0.0754 -0.15986,-0.15986 z m 2.11667,-0.26458 c 0.19099,-0.0764 0.4192,-0.067 0.50712,0.0209 0.0879,0.0879 -0.0683,0.15047 -0.34727,0.13899 -0.30822,-0.0127 -0.37092,-0.0754 -0.15985,-0.15986 z m 43.50266,-18.60468 c 0,-0.50932 0.0545,-0.71768 0.121,-0.46302 0.0666,0.25466 0.0666,0.67138 0,0.92604 -0.0666,0.25466 -0.121,0.0463 -0.121,-0.46302 z m -0.26458,-4.23333 c 0,-0.50932 0.0544,-0.71768 0.121,-0.46302 0.0666,0.25466 0.0666,0.67138 0,0.92604 -0.0666,0.25466 -0.121,0.0463 -0.121,-0.46302 z m -0.26459,-4.23334 c 0,-0.50932 0.0544,-0.71768 0.121,-0.46302 0.0666,0.25467 0.0666,0.67138 0,0.92605 -0.0666,0.25466 -0.121,0.0463 -0.121,-0.46303 z m -0.26458,-4.23333 c 0,-0.50932 0.0545,-0.71768 0.121,-0.46302 0.0665,0.25466 0.0665,0.67138 0,0.92604 -0.0666,0.25466 -0.121,0.0463 -0.121,-0.46302 z m -0.26458,-4.23333 c 0,-0.50933 0.0544,-0.71768 0.121,-0.46302 0.0666,0.25466 0.0666,0.67138 0,0.92604 -0.0666,0.25466 -0.121,0.0463 -0.121,-0.46302 z m -0.26459,-4.23334 c 0,-0.50932 0.0544,-0.71768 0.121,-0.46302 0.0666,0.25467 0.0666,0.67138 0,0.92605 -0.0666,0.25466 -0.121,0.0463 -0.121,-0.46303 z m -0.26458,-4.23333 c 0,-0.50932 0.0544,-0.71768 0.121,-0.46302 0.0666,0.25466 0.0666,0.67138 0,0.92604 -0.0666,0.25466 -0.121,0.0463 -0.121,-0.46302 z m -0.26458,-4.23333 c 0,-0.50933 0.0545,-0.71768 0.121,-0.46302 0.0666,0.25466 0.0666,0.67138 0,0.92604 -0.0666,0.25466 -0.121,0.0463 -0.121,-0.46302 z m -0.26459,-4.23334 c 0,-0.50932 0.0545,-0.71768 0.121,-0.46302 0.0666,0.25466 0.0666,0.67138 0,0.92605 -0.0666,0.25466 -0.121,0.0463 -0.121,-0.46303 z m -0.26458,-4.23333 c 0,-0.50932 0.0544,-0.71768 0.121,-0.46302 0.0666,0.25466 0.0666,0.67138 0,0.92604 -0.0666,0.25466 -0.121,0.0463 -0.121,-0.46302 z m -0.26458,-4.23333 c 0,-0.50933 0.0545,-0.71768 0.121,-0.46302 0.0665,0.25466 0.0665,0.67138 0,0.92604 -0.0666,0.25466 -0.121,0.0463 -0.121,-0.46302 z m -0.26459,-4.23334 c 0,-0.50932 0.0545,-0.71768 0.121,-0.46302 0.0665,0.25466 0.0665,0.67138 0,0.92604 -0.0666,0.25467 -0.121,0.0463 -0.121,-0.46302 z m -0.26458,-4.23333 c 0,-0.50932 0.0544,-0.71768 0.121,-0.46302 0.0666,0.25466 0.0666,0.67138 0,0.92604 -0.0666,0.25466 -0.121,0.0463 -0.121,-0.46302 z m -0.26458,-4.23333 c 0,-0.50933 0.0544,-0.71768 0.121,-0.46302 0.0666,0.25466 0.0666,0.67138 0,0.92604 -0.0666,0.25466 -0.121,0.0463 -0.121,-0.46302 z m -0.26459,-4.23334 c 0,-0.50932 0.0544,-0.71768 0.121,-0.46302 0.0666,0.25466 0.0666,0.67138 0,0.92604 -0.0666,0.25467 -0.121,0.0463 -0.121,-0.46302 z m -0.26458,-4.23333 c 0,-0.50932 0.0545,-0.71768 0.121,-0.46302 0.0666,0.25466 0.0666,0.67138 0,0.92604 -0.0666,0.25466 -0.121,0.0463 -0.121,-0.46302 z m -0.26458,-4.23333 c 0,-0.50933 0.0544,-0.71769 0.121,-0.46302 0.0666,0.25466 0.0666,0.67138 0,0.92604 -0.0666,0.25466 -0.121,0.0463 -0.121,-0.46302 z m -0.26459,-4.23334 c 0,-0.50932 0.0544,-0.71768 0.121,-0.46302 0.0666,0.25466 0.0666,0.67138 0,0.92604 -0.0666,0.25467 -0.121,0.0463 -0.121,-0.46302 z m -0.26458,-4.23333 c 0,-0.50932 0.0545,-0.71768 0.121,-0.46302 0.0665,0.25466 0.0665,0.67138 0,0.92604 -0.0666,0.25466 -0.121,0.0463 -0.121,-0.46302 z m -0.26458,-4.23333 c 0,-0.50933 0.0544,-0.71769 0.121,-0.46302 0.0666,0.25466 0.0666,0.67138 0,0.92604 -0.0666,0.25466 -0.121,0.0463 -0.121,-0.46302 z m -0.26459,-4.23334 c 0,-0.50932 0.0544,-0.71768 0.121,-0.46302 0.0666,0.25466 0.0666,0.67138 0,0.92604 -0.0666,0.25467 -0.121,0.0463 -0.121,-0.46302 z m -0.26458,-4.23333 c 0,-0.50932 0.0544,-0.71768 0.121,-0.46302 0.0666,0.25466 0.0666,0.67138 0,0.92604 -0.0666,0.25466 -0.121,0.0463 -0.121,-0.46302 z m -0.26458,-4.23333 c 0,-0.50933 0.0545,-0.71769 0.121,-0.46302 0.0666,0.25466 0.0666,0.67138 0,0.92604 -0.0666,0.25466 -0.121,0.0463 -0.121,-0.46302 z m -0.26459,-4.23334 c 0,-0.50932 0.0545,-0.71768 0.121,-0.46302 0.0666,0.25466 0.0666,0.67138 0,0.92604 -0.0666,0.25467 -0.121,0.0463 -0.121,-0.46302 z m -0.26458,-4.23333 c 0,-0.50932 0.0544,-0.71768 0.121,-0.46302 0.0666,0.25466 0.0666,0.67138 0,0.92604 -0.0666,0.25466 -0.121,0.0463 -0.121,-0.46302 z m -0.26458,-4.23333 c 0,-0.50933 0.0545,-0.71769 0.121,-0.46302 0.0665,0.25466 0.0665,0.67138 0,0.92604 -0.0666,0.25466 -0.121,0.0463 -0.121,-0.46302 z m -0.26459,-4.23334 c 0,-0.50932 0.0545,-0.71768 0.121,-0.46302 0.0665,0.25466 0.0665,0.67138 0,0.92604 -0.0666,0.25467 -0.121,0.0463 -0.121,-0.46302 z m -0.26458,-4.23333 c 0,-0.50932 0.0544,-0.71768 0.121,-0.46302 0.0666,0.25466 0.0666,0.67138 0,0.92604 -0.0666,0.25466 -0.121,0.0463 -0.121,-0.46302 z m -0.26458,-4.23333 c 0,-0.50933 0.0544,-0.71769 0.121,-0.46302 0.0666,0.25466 0.0666,0.67138 0,0.92604 -0.0666,0.25466 -0.121,0.0463 -0.121,-0.46302 z m -0.26459,-4.23334 c 0,-0.50932 0.0544,-0.71768 0.121,-0.46302 0.0666,0.25466 0.0666,0.67138 0,0.92604 -0.0666,0.25467 -0.121,0.0463 -0.121,-0.46302 z m -0.26458,-4.23333 c 0,-0.50932 0.0545,-0.71768 0.121,-0.46302 0.0666,0.25466 0.0666,0.67138 0,0.92604 -0.0666,0.25466 -0.121,0.0463 -0.121,-0.46302 z m -0.26458,-4.23333 c 0,-0.50933 0.0544,-0.71769 0.121,-0.46302 0.0666,0.25466 0.0666,0.67138 0,0.92604 -0.0666,0.25466 -0.121,0.0463 -0.121,-0.46302 z m -0.26459,-4.23334 c 0,-0.50932 0.0544,-0.71768 0.121,-0.46302 0.0666,0.25466 0.0666,0.67138 0,0.92604 -0.0666,0.25467 -0.121,0.0463 -0.121,-0.46302 z"
           style="fill:#aadce1;stroke-width:0.26458335" />
        <path
           inkscape:connector-curvature="0"
           id="path840"
           d="m -272.92398,212.83415 c -0.58318,-0.91953 -51.07402,-93.55734 -53.03218,-97.30052 -0.95157,-1.81901 -19.09087,-36.100249 -40.30956,-76.180527 -21.21869,-40.08027682 -38.54888,-72.903782 -38.51154,-72.941125 0.20537,-0.205367 101.11527,-8.820418 101.27647,-8.646346 0.10625,0.11474 15.69583,39.3206484 34.64352,87.124243 18.94768,47.803594 41.70151,105.207825 50.56407,127.564945 8.86256,22.35713 16.11374,40.72252 16.11374,40.81198 0,0.0894 -15.83257,0.16266 -35.18348,0.16266 h -35.18348 z"
           style="fill:#80d3de;stroke-width:0.26458335" />
        <path
           inkscape:connector-curvature="0"
           id="path838"
           d="m -120.68779,-33.426793 -50.66771,-0.134326 50.73386,-0.06513 c 33.689606,-0.04325 50.733853,0.02376 50.733853,0.199456 0,0.145521 -0.02977,0.235275 -0.06615,0.199456 -0.03638,-0.03582 -22.866615,-0.125576 -50.733853,-0.199456 z"
           style="fill:#72d0db;stroke-width:0.26458335" />
        <path
           inkscape:connector-curvature="0"
           id="path836"
           d="m -202.33573,212.768 c -0.11037,-0.29104 -7.85943,-19.8496 -17.22012,-43.46345 -9.36069,-23.61383 -17.01944,-43.05851 -17.01944,-43.21037 0,-0.27752 2.28314,-5.86762 20.90078,-51.174096 5.56126,-13.533438 13.26646,-32.285782 17.12267,-41.671876 3.85622,-9.386094 10.04454,-24.4475004 13.75183,-33.46979217 3.70729,-9.02229183 8.29342,-20.18440183 10.19138,-24.80468783 l 3.45088,-8.400521 h 50.50269 c 27.776489,0 50.502689,0.09458 50.502689,0.210164 0,0.164428 -57.125259,106.930774 -83.198649,155.497129 -17.86509,33.277 -47.65924,88.83653 -48.16976,89.82604 -0.53539,1.03773 -0.64004,1.12268 -0.81495,0.66146 z"
           style="fill:#32baca;stroke-width:0.26458335" />
        <path
           inkscape:connector-curvature="0"
           id="path834"
           d="m -382.55915,274.88786 c 0.40019,-0.0606 1.05503,-0.0606 1.45521,0 0.40018,0.0606 0.0728,0.11022 -0.7276,0.11022 -0.80037,0 -1.12779,-0.0496 -0.72761,-0.11022 z m 7.14879,-0.25842 c 0.25743,-0.0671 0.61462,-0.0627 0.79375,0.01 0.17913,0.0725 -0.0315,0.12734 -0.46806,0.12197 -0.43656,-0.005 -0.58312,-0.0647 -0.32569,-0.13179 z m 226.01377,-8.61404 -8.72974,-8.7974 8.7974,8.72975 c 8.17604,8.11318 8.91643,8.86505 8.72974,8.86505 -0.0372,0 -3.99603,-3.95883 -8.7974,-8.7974 z m -221.91776,8.35758 c 0.1819,-0.0734 0.47955,-0.0734 0.66145,0 0.1819,0.0734 0.0331,0.13345 -0.33073,0.13345 -0.3638,0 -0.51263,-0.0601 -0.33072,-0.13345 z m 3.19153,-0.27009 c 0.191,-0.0764 0.4192,-0.067 0.50712,0.0209 0.0879,0.0879 -0.0684,0.15047 -0.34726,0.13899 -0.30823,-0.0127 -0.37092,-0.0754 -0.15986,-0.15986 z m 2.64584,-0.26458 c 0.19099,-0.0764 0.4192,-0.067 0.50711,0.0209 0.0879,0.0879 -0.0684,0.15047 -0.34726,0.13899 -0.30823,-0.0127 -0.37092,-0.0754 -0.15985,-0.15987 z m 48.51013,-17.81093 c 0,-0.3638 0.0601,-0.51263 0.13345,-0.33073 0.0734,0.1819 0.0734,0.47956 0,0.66146 -0.0734,0.1819 -0.13345,0.0331 -0.13345,-0.33073 z m -0.26458,-4.23334 c 0,-0.3638 0.06,-0.51263 0.13345,-0.33072 0.0734,0.1819 0.0734,0.47955 0,0.66145 -0.0734,0.18191 -0.13345,0.0331 -0.13345,-0.33073 z m -0.26459,-4.23333 c 0,-0.3638 0.0601,-0.51263 0.13346,-0.33073 0.0734,0.1819 0.0734,0.47956 0,0.66146 -0.0734,0.1819 -0.13346,0.0331 -0.13346,-0.33073 z m -0.26458,-4.23333 c 0,-0.3638 0.0601,-0.51263 0.13345,-0.33073 0.0734,0.1819 0.0734,0.47956 0,0.66146 -0.0734,0.1819 -0.13345,0.0331 -0.13345,-0.33073 z m -0.26458,-4.23334 c 0,-0.3638 0.06,-0.51263 0.13345,-0.33072 0.0734,0.1819 0.0734,0.47955 0,0.66145 -0.0734,0.1819 -0.13345,0.0331 -0.13345,-0.33073 z m -0.26459,-4.23333 c 0,-0.3638 0.0601,-0.51263 0.13346,-0.33073 0.0734,0.1819 0.0734,0.47956 0,0.66146 -0.0734,0.1819 -0.13346,0.0331 -0.13346,-0.33073 z m -0.26458,-4.23333 c 0,-0.3638 0.0601,-0.51263 0.13345,-0.33073 0.0734,0.1819 0.0734,0.47956 0,0.66146 -0.0734,0.1819 -0.13345,0.0331 -0.13345,-0.33073 z m -0.26458,-4.23334 c 0,-0.3638 0.0601,-0.51263 0.13345,-0.33072 0.0734,0.1819 0.0734,0.47955 0,0.66145 -0.0734,0.1819 -0.13345,0.0331 -0.13345,-0.33073 z m -0.25478,-4.10104 c 0.005,-0.43656 0.0647,-0.58311 0.13177,-0.3257 0.0671,0.25744 0.0627,0.61463 -0.01,0.79375 -0.0725,0.17915 -0.12737,-0.0315 -0.12197,-0.46805 z m -0.26458,-4.23333 c 0.005,-0.43656 0.0647,-0.58312 0.13177,-0.3257 0.0671,0.25744 0.0627,0.61462 -0.01,0.79375 -0.0725,0.17915 -0.12736,-0.0315 -0.12197,-0.46805 z m -0.26459,-4.23333 c 0.005,-0.43657 0.0647,-0.58312 0.13178,-0.32571 0.0671,0.25744 0.0627,0.61463 -0.01,0.79375 -0.0725,0.17915 -0.12736,-0.0315 -0.12197,-0.46804 z m -0.26458,-4.23334 c 0.005,-0.43656 0.0647,-0.58311 0.13177,-0.3257 0.0671,0.25744 0.0627,0.61463 -0.01,0.79375 -0.0725,0.17915 -0.12737,-0.0315 -0.12197,-0.46805 z m -0.26458,-4.23333 c 0.005,-0.43656 0.0647,-0.58312 0.13177,-0.3257 0.0671,0.25744 0.0627,0.61462 -0.01,0.79375 -0.0725,0.17915 -0.12736,-0.0315 -0.12197,-0.46805 z m -0.26459,-4.23333 c 0.005,-0.43657 0.0647,-0.58312 0.13178,-0.32571 0.0671,0.25744 0.0627,0.61463 -0.01,0.79375 -0.0725,0.17915 -0.12736,-0.0315 -0.12197,-0.46804 z m -0.26458,-4.23334 c 0.005,-0.43656 0.0647,-0.58311 0.13177,-0.3257 0.0671,0.25744 0.0627,0.61463 -0.01,0.79375 -0.0725,0.17915 -0.12737,-0.0315 -0.12197,-0.46805 z m -0.26458,-4.23333 c 0.005,-0.43656 0.0647,-0.58312 0.13177,-0.3257 0.0671,0.25744 0.0627,0.61462 -0.01,0.79375 -0.0725,0.17915 -0.12736,-0.0315 -0.12197,-0.46805 z m -0.26459,-4.23333 c 0.005,-0.43657 0.0647,-0.58312 0.13178,-0.32571 0.0671,0.25744 0.0627,0.61463 -0.01,0.79375 -0.0725,0.17915 -0.12736,-0.0315 -0.12197,-0.46804 z m -0.26458,-4.23334 c 0.005,-0.43656 0.0647,-0.58311 0.13177,-0.3257 0.0671,0.25744 0.0627,0.61463 -0.01,0.79375 -0.0725,0.17915 -0.12737,-0.0315 -0.12197,-0.46805 z m -0.26458,-4.23333 c 0.005,-0.43656 0.0647,-0.58312 0.13177,-0.3257 0.0671,0.25744 0.0627,0.61462 -0.01,0.79375 -0.0725,0.17915 -0.12736,-0.0315 -0.12197,-0.46805 z m -0.26459,-4.23333 c 0.005,-0.43657 0.0647,-0.58312 0.13178,-0.32571 0.0671,0.25744 0.0627,0.61463 -0.01,0.79375 -0.0725,0.17915 -0.12736,-0.0315 -0.12197,-0.46804 z m -0.26458,-4.23334 c 0.005,-0.43656 0.0647,-0.58311 0.13177,-0.3257 0.0671,0.25744 0.0627,0.61463 -0.01,0.79375 -0.0725,0.17915 -0.12737,-0.0315 -0.12197,-0.46805 z m -0.26458,-4.23333 c 0.005,-0.43656 0.0647,-0.58313 0.13177,-0.3257 0.0671,0.25744 0.0627,0.61462 -0.01,0.79375 -0.0725,0.17914 -0.12736,-0.0315 -0.12197,-0.46805 z m -0.26459,-4.23333 c 0.005,-0.43657 0.0647,-0.58313 0.13178,-0.3257 0.0671,0.25743 0.0627,0.61462 -0.01,0.79375 -0.0725,0.17913 -0.12736,-0.0315 -0.12197,-0.46805 z m -0.26458,-4.23334 c 0.005,-0.43656 0.0647,-0.58312 0.13177,-0.32569 0.0671,0.25743 0.0627,0.61462 -0.01,0.79375 -0.0725,0.17913 -0.12737,-0.0315 -0.12197,-0.46806 z m -0.26458,-4.23333 c 0.005,-0.43656 0.0647,-0.58313 0.13177,-0.3257 0.0671,0.25744 0.0627,0.61462 -0.01,0.79375 -0.0725,0.17913 -0.12736,-0.0315 -0.12197,-0.46805 z m -0.26459,-4.23334 c 0.005,-0.43656 0.0647,-0.58312 0.13178,-0.32569 0.0671,0.25743 0.0627,0.61462 -0.01,0.79375 -0.0725,0.17913 -0.12736,-0.0315 -0.12197,-0.46806 z m -0.26458,-4.23333 c 0.005,-0.43656 0.0647,-0.58312 0.13177,-0.32569 0.0671,0.25743 0.0627,0.61462 -0.01,0.79375 -0.0725,0.17913 -0.12737,-0.0315 -0.12197,-0.46806 z m -0.26458,-4.23333 c 0.005,-0.43656 0.0647,-0.58313 0.13177,-0.3257 0.0671,0.25744 0.0627,0.61462 -0.01,0.79375 -0.0725,0.17913 -0.12736,-0.0315 -0.12197,-0.46805 z m -0.26459,-4.23334 c 0.005,-0.43656 0.0647,-0.58312 0.13178,-0.32569 0.0671,0.25743 0.0627,0.61462 -0.01,0.79375 -0.0725,0.17913 -0.12736,-0.0315 -0.12197,-0.46806 z m -0.26458,-4.23333 c 0.005,-0.43656 0.0647,-0.58312 0.13177,-0.32569 0.0671,0.25743 0.0627,0.61462 -0.01,0.79375 -0.0725,0.17913 -0.12737,-0.0315 -0.12197,-0.46806 z m -0.26458,-4.23333 c 0.005,-0.43656 0.0647,-0.58313 0.13177,-0.3257 0.0671,0.25744 0.0627,0.61462 -0.01,0.79375 -0.0725,0.17913 -0.12736,-0.0315 -0.12197,-0.46805 z m -0.26459,-4.23334 c 0.005,-0.43656 0.0647,-0.58312 0.13178,-0.32569 0.0671,0.25743 0.0627,0.61462 -0.01,0.79375 -0.0725,0.17913 -0.12736,-0.0315 -0.12197,-0.46806 z m -0.26458,-4.23333 c 0.005,-0.43656 0.0647,-0.58312 0.13177,-0.32569 0.0671,0.25743 0.0627,0.61462 -0.01,0.79375 -0.0725,0.17913 -0.12737,-0.0315 -0.12197,-0.46806 z m -0.29528,-3.9908 c 0.0127,-0.30822 0.0754,-0.37092 0.15985,-0.15985 0.0764,0.19099 0.067,0.4192 -0.0209,0.50712 -0.0879,0.0879 -0.15045,-0.0683 -0.13897,-0.34727 z M -70.131495,-31.464466 c 0.0127,-0.308226 0.07541,-0.370919 0.159861,-0.159853 0.07644,0.190995 0.06705,0.419198 -0.0209,0.507119 -0.08792,0.08792 -0.150468,-0.06835 -0.138986,-0.347266 z"
           style="fill:#50acb6;stroke-width:0.26458335" />
        <path
           inkscape:connector-curvature="0"
           id="path832"
           d="m -384.41123,274.895 c 0.25466,-0.0666 0.67138,-0.0666 0.92604,0 0.25466,0.0665 0.0463,0.121 -0.46302,0.121 -0.50932,0 -0.71768,-0.0545 -0.46302,-0.121 z m 235.21459,-8.79324 -8.7974,-8.89233 v -63.07352 -63.07353 l 2.29658,-4.32126 c 1.26313,-2.37669 2.34024,-4.27761 2.39361,-4.22426 0.36954,0.36956 3.38114,20.08596 4.81357,31.51364 3.82309,30.50043 6.88461,72.29036 7.82113,106.75938 0.081,2.98318 0.21855,7.26726 0.30552,9.52016 l 0.15814,4.09617 1.03177,-2.90555 c 4.93096,-13.88591 15.66772,-48.54366 22.5802,-72.88787 22.64164,-79.73875 38.276319,-155.983608 45.791359,-223.308333 0.381714,-3.41974 0.743612,-6.267318 0.804201,-6.327952 0.06059,-0.06063 0.110173,68.78726 0.110173,152.995315 v 153.10556 l -35.255733,-0.0417 -35.25573,-0.0417 z m -255.6273,-145.27647 -0.003,-154.119791 0.55678,1.058333 c 0.30623,0.582083 18.08192,34.161286 39.50155,74.620449 33.41412,63.115389 40.06615,75.862489 39.06731,74.863659 -0.0858,-0.0858 -17.9229,35.36088 -39.6379,78.77053 l -39.48181,78.92662 z M -70.152371,-32.075394 c 0,-0.178364 -0.137451,-0.239342 -0.305461,-0.135509 -0.196903,0.121695 -0.23331,0.07204 -0.10242,-0.139729 0.14425,-0.233429 0.285009,-0.246539 0.486251,-0.04529 0.155787,0.155776 0.201877,0.364587 0.10242,0.464026 -0.09943,0.09944 -0.18079,0.03487 -0.18079,-0.143498 z"
           style="fill:#0195a5;stroke-width:0.26458335" />
        <path
           inkscape:connector-curvature="0"
           id="path830"
           d="m -365.36866,196.1138 c 21.71484,-43.42995 39.54442,-78.9008 39.6213,-78.82411 0.0769,0.0767 2.10877,31.64149 4.51531,70.14398 l 4.37553,70.00452 -1.49528,1.1612 c -6.48153,5.03336 -17.45593,9.59835 -29.74537,12.37311 -13.41349,3.02855 -25.7257,4.0807 -47.95567,4.09803 l -8.79733,0.007 z m 225.00503,74.19624 c -0.087,-2.2529 -0.22448,-6.53698 -0.30552,-9.52016 -1.25997,-46.37437 -5.94151,-99.84484 -11.64846,-133.04424 l -0.92531,-5.38278 41.18192,-76.902641 c 22.650058,-42.2964514 41.396952,-77.254771 41.659762,-77.685158 l 0.477838,-0.782524 -0.116338,1.047107 c -0.06398,0.575908 -0.417856,3.845073 -0.786394,7.264813 -8.167714,75.78864 -28.991534,170.999783 -57.404588,262.466673 -3.2975,10.61521 -9.2475,28.95486 -10.943,33.72953 l -1.03177,2.90555 z"
           style="fill:#01828e;stroke-width:0.26458335" />
      </g>
      <text
         id="text848"
         y="247.23183"
         x="-208.74246"
         style="font-style:normal;font-variant:normal;font-weight:bold;font-stretch:normal;font-size:71.07417297px;line-height:1.25;font-family:sans-serif;-inkscape-font-specification:'sans-serif, Bold';font-variant-ligatures:normal;font-variant-caps:normal;font-variant-numeric:normal;font-feature-settings:normal;text-align:start;letter-spacing:0px;word-spacing:0px;writing-mode:lr-tb;text-anchor:start;fill:#01828e;fill-opacity:1;stroke:none;stroke-width:1.77681398"
         xml:space="preserve"><tspan
           style="font-style:normal;font-variant:normal;font-weight:bold;font-stretch:normal;font-size:71.07417297px;font-family:sans-serif;-inkscape-font-specification:'sans-serif, Bold';font-variant-ligatures:normal;font-variant-caps:normal;font-variant-numeric:normal;font-feature-settings:normal;text-align:start;writing-mode:lr-tb;text-anchor:start;fill:#01828e;fill-opacity:1;stroke-width:1.77681398"
           y="247.23183"
           x="-208.74246"
           id="tspan846"
           sodipodi:role="line">MAYA</tspan></text>
    </g>
  </g>
</svg>
