<?xml version="1.0" encoding="UTF-8" standalone="no"?>
<!-- Created with Inkscape (http://www.inkscape.org/) -->

<svg
   xmlns:dc="http://purl.org/dc/elements/1.1/"
   xmlns:cc="http://creativecommons.org/ns#"
   xmlns:rdf="http://www.w3.org/1999/02/22-rdf-syntax-ns#"
   xmlns:svg="http://www.w3.org/2000/svg"
   xmlns="http://www.w3.org/2000/svg"
   xmlns:sodipodi="http://sodipodi.sourceforge.net/DTD/sodipodi-0.dtd"
   xmlns:inkscape="http://www.inkscape.org/namespaces/inkscape"
   width="39.140778mm"
   height="7.5671587mm"
   viewBox="0 0 39.140776 7.5671587"
   version="1.1"
   id="svg8"
   inkscape:version="0.92.5 (2060ec1f9f, 2020-04-08)"
   sodipodi:docname="ms-dos.svg">
  <defs
     id="defs2" />
  <sodipodi:namedview
     id="base"
     pagecolor="#ffffff"
     bordercolor="#666666"
     borderopacity="1.0"
     inkscape:pageopacity="0.0"
     inkscape:pageshadow="2"
     inkscape:zoom="7.9195959"
     inkscape:cx="90.927295"
     inkscape:cy="-21.456417"
     inkscape:document-units="px"
     inkscape:current-layer="g880"
     showgrid="false"
     inkscape:window-width="1871"
     inkscape:window-height="1019"
     inkscape:window-x="49"
     inkscape:window-y="29"
     inkscape:window-maximized="1"
     fit-margin-top="0"
     fit-margin-left="0"
     fit-margin-right="0"
     fit-margin-bottom="0" />
  <metadata
     id="metadata5">
    <rdf:RDF>
      <cc:Work
         rdf:about="">
        <dc:format>image/svg+xml</dc:format>
        <dc:type
           rdf:resource="http://purl.org/dc/dcmitype/StillImage" />
        <dc:title></dc:title>
      </cc:Work>
    </rdf:RDF>
  </metadata>
  <g
     inkscape:label="Camada 1"
     inkscape:groupmode="layer"
     id="layer1"
     transform="translate(-30.994054,-159.40901)">
    <g
       id="g880"
       transform="matrix(0.0547,0,0,0.0547,52.785818,151.26783)">
      <rect
         y="148.83333"
         x="-398.3869"
         height="138.33928"
         width="715.55353"
         id="rect815"
         style="fill:#0080ff;fill-opacity:1;stroke-width:0.51223081" />
      <text
         id="text848"
         y="241.30716"
         x="-261.81094"
         style="font-style:normal;font-variant:normal;font-weight:bold;font-stretch:normal;font-size:58.15393448px;line-height:1.25;font-family:sans-serif;-inkscape-font-specification:'sans-serif, Bold';font-variant-ligatures:normal;font-variant-caps:normal;font-variant-numeric:normal;font-feature-settings:normal;text-align:start;letter-spacing:0px;word-spacing:0px;writing-mode:lr-tb;text-anchor:start;fill:#fffcff;fill-opacity:1;stroke:none;stroke-width:1.45381522"
         xml:space="preserve"><tspan
           style="font-style:normal;font-variant:normal;font-weight:bold;font-stretch:normal;font-size:58.15393448px;font-family:sans-serif;-inkscape-font-specification:'sans-serif, Bold';font-variant-ligatures:normal;font-variant-caps:normal;font-variant-numeric:normal;font-feature-settings:normal;text-align:start;writing-mode:lr-tb;text-anchor:start;fill:#fffcff;fill-opacity:1;stroke-width:1.45381522"
           y="241.30716"
           x="-261.81094"
           id="tspan846"
           sodipodi:role="line">MICROSOFT DOS</tspan></text>
      <g
         id="_____1"
         transform="matrix(0.19345578,0,0,0.19345578,-388.46892,163.62486)">
        <g
           id="g946">
          <g
             id="g944">
            <g
               id="g942">
              <path
                 id="path920"
                 d="m 377,536 v 16 h 96 v -16 h -96 m -16,-32 h -16 v 16 h 16 v -16 m 16,32 v -16 h -16 v 16 h 16 m -32,-48 h -16 v 16 h 16 v -16 m 32,-64 v 16 h 16 v -16 h -16 m 48,16 v -16 h -16 v 16 h -16 v 16 h 64 v -16 h -32 m 32,-16 v 16 h 16 v -16 h -16 m 48,96 h 16 v -16 h -16 v 16 m 0,16 v -16 h -32 v 16 h 32 m -192,0 h -16 -16 -16 -16 v 16 h 112 v -16 h -16 -16 -16 m -96,16 V 536 H 73 v 16 h 144 m 48,-64 v -16 h -16 -16 v 16 32 h -16 v 16 h 32 v -16 -16 -16 h 16 M 153,216 h 16 v -32 h -16 v 32 m 32,128 v -16 -16 h -16 v 16 h -48 v 128 h 96 v -16 h -16 v -16 h -16 v 16 h -48 v -96 h 32 v 80 h 16 v -16 -16 -16 -16 -16 m 48,-16 v 16 16 16 16 16 h -16 v 16 16 h 16 v -16 h 16 V 312 h -16 v 16 m 0,-64 v -16 h -16 v 16 h 16 m -32,0 v 16 h 16 v -16 h -16 m 0,32 v -16 h -16 v 16 16 h 16 V 296 M 137,56 v 16 16 h 16 V 56 h -16 m -48,0 h 32 16 V 40 H 73 V 232 H 57 V 536 H 73 V 520 248 h 128 16 v -32 h -16 v 16 h -16 v -16 h -16 v 16 h -32 v -48 h 16 v -32 h -16 v -16 h -16 v 96 H 105 89 V 56 m 80,64 V 88 h -16 v 16 16 h 16 m 32,32 h 16 v -32 h -16 v 32 m 32,32 h -16 v 32 h 16 v -32 m -48,-32 v 16 16 h 16 v -32 h -16 m -16,-32 v 16 16 h 16 v -32 h -16 m 64,-32 h -16 v 32 h 16 V 88 m 16,0 V 56 h -16 v 32 h 16 m 288,304 h -16 v 64 48 h 16 V 392 m -32,-16 v 16 h 16 v -16 h -16 m 0,-96 h 16 v -16 h -16 v 16 m 16,0 v 16 32 h 16 v -48 h -16 m -48,80 v 16 h 32 v -16 h -32 m -16,-32 h 16 v -16 h -16 v 16 m 16,0 v 16 h 48 v -16 h -48 m -144,32 v -16 -64 h -16 v 16 16 16 h -16 v -16 -16 h -16 -16 -16 v 16 h 32 v 112 16 h -16 v 32 h 16 v -16 h 16 16 v 16 16 h 16 v -48 -16 h -16 v 16 h -16 v -96 h 16 v 16 h 16 m 16,16 v -16 h -16 v 16 h 16 m 32,-64 h 16 16 16 v 16 16 16 16 16 16 16 h 32 v -16 h -16 v -16 -32 h 32 v -16 h -32 v -32 h 16 v -16 h -80 v 16 m 0,32 v -16 -16 h -16 v 48 16 h -16 v 16 h 16 v 16 h -32 v 16 h 48 v -16 -16 -16 -16 -16 m -48,-96 h 16 V 232 H 313 V 40 h -64 v 16 h 32 16 v 176 h -16 -16 v -96 h -16 v 16 h -16 v 32 h 16 v 48 h -16 v 16 h 16 16 16 16 16 16 m 16,16 h -16 v 16 h 16 v -16 m 0,0 h 16 v -16 h -16 v 16 m 16,-48 h -16 v 16 h 16 v -16 m 112,32 v 16 h 32 v -16 h -32 m 0,-16 h -16 -96 v 16 h 112 v -16 m 0,-16 v 16 h 16 v -16 h -16 m -16,-32 h -16 v 16 h 16 v -16 m 0,-32 h 16 v -16 h -32 v 16 h 16 m -32,32 h 16 v -16 h -16 v 16 m -48,0 v -16 h -48 v 48 h 16 v -32 h 32 m 16,0 h -16 v 32 h 64 v -16 h -48 v -16 m -16,-32 v 16 h 48 v -16 h -48 m -16,-16 h -16 v 16 h 32 v -16 h -16 m 32,-16 v 16 h 32 16 v -16 h -48 m 0,-32 h -16 v 32 h 16 V 88 M 345,72 h -16 v 64 h 16 V 72 m 0,-16 v 16 h 32 V 56 h -32 m 96,0 h 16 V 40 h -80 v 16 h 64 m 0,32 V 72 h -48 v 16 h 48 m 48,80 v -16 h -16 v 16 h 16 m 16,0 h -16 v 48 h 16 V 168 M 489,72 V 56 h -32 v 16 h 16 16 m 16,0 h -16 v 32 H 473 457 V 88 h -16 v 32 h 64 z"
                 inkscape:connector-curvature="0"
                 style="fill:#000000;stroke:none" />
              <path
                 id="path922"
                 d="m 329,504 v 16 h 16 v -16 h -16 m 16,32 h 16 v -16 h -16 v 16 m 32,-112 h 16 v -16 h -16 v 16 m -128,96 v 16 h 16 v -16 h -16 m 32,-16 h -16 v 16 h 16 v -16 m 16,16 h 16 v -16 h -16 v 16 m 16,0 v 16 h 16 v -16 h -16 m -16,16 v -16 h -16 v 16 h 16 m 0,-208 h 16 v -16 h -16 v 16 m -80,48 h 16 v -16 h -16 v 16 m 16,16 h -16 v 16 h 16 v -16 m -16,-64 v 16 h 16 v -16 h -16 m 160,48 v 16 h 16 v -16 h -16 m 0,-48 h 16 v -16 h -16 v 16 m 16,16 h -16 v 16 h 16 v -16 m -64,-64 v -16 h -16 v 16 h 16 m 16,-16 v -16 h -16 v 16 z"
                 inkscape:connector-curvature="0"
                 style="fill:#000080;stroke:none" />
              <path
                 id="path924"
                 d="m 329,520 v 16 h 16 v -16 h -16 m -80,-16 v 16 h 16 v -16 h -16 m 16,32 h 16 v -16 h -16 v 16 m 48,-32 v 16 h 16 v -16 h -16 m -16,16 v -16 h -16 v 16 h 16 m 0,0 v 16 h 16 V 520 H 297 M 233,312 h 16 v -16 h -16 v 16 m -16,64 v 16 h 16 v -16 h -16 m 0,-48 h 16 v -16 h -16 v 16 m 16,16 h -16 v 16 h 16 v -16 m 80,-48 h -16 v 16 h 16 v -16 m 64,80 h 16 v -16 h -16 v 16 m 16,16 h -16 v 16 h 16 v -16 m -16,-64 v 16 h 16 v -16 z"
                 inkscape:connector-curvature="0"
                 style="fill:#800080;stroke:none" />
              <path
                 id="path926"
                 d="m 409,424 v -16 h -16 v 16 h 16 M 201,408 h -16 v 16 h 16 v -16 m 16,32 v -16 h -16 v 16 h 16 m 80,32 h 16 v -16 h -16 v 16 m 16,16 h -16 v 16 h 16 v -16 m -32,-16 v 16 h 16 v -16 h -16 m 0,16 h -16 v 16 h 16 v -16 m -64,-96 h -16 v 16 h 16 v -16 m -16,-32 v 16 h 16 v -16 h -16 m -16,32 h 16 v -16 h -16 v 16 m 16,-48 h -16 v 16 h 16 v -16 m 0,-32 h -16 v 16 h 16 v -16 m 16,32 v -16 h -16 v 16 h 16 m 0,-48 h -16 v 16 h 16 v -16 m 0,-16 v 16 h 16 v -16 h -16 m 96,-16 h -16 v 16 h 16 v -16 m -64,16 v -16 h -16 v 16 h 16 m 32,0 v 16 h 16 v -16 h -16 m -32,0 v 16 h 16 v -16 h -16 m 16,-16 v -16 h -16 v 16 h 16 m 16,-16 v 16 h 16 v -16 h -16 m 0,16 h -16 v 16 h 16 v -16 m 144,128 h -16 v 16 h 16 v -16 m 0,-32 h -16 v 16 h 16 v -16 m -16,-16 h 16 v -16 h -16 v 16 m -16,0 v 16 h 16 v -16 h -16 m 0,32 v 16 h 16 v -16 h -16 m 0,-64 v 16 h 16 v -16 h -16 m -64,-48 v -16 h -16 v 16 z"
                 inkscape:connector-curvature="0"
                 style="fill:#ff00ff;stroke:none" />
              <path
                 id="path928"
                 d="m 409,440 v -16 h -16 v 16 h 16 m 16,-32 h -16 v 16 h 16 v -16 m -112,80 v 16 h 16 v -16 h -16 m -96,-64 v -16 h -16 v 16 h 16 m 80,64 h -16 v 16 h 16 v -16 m 0,-16 v 16 h 16 v -16 h -16 m -16,-16 v 16 h 16 v -16 h -16 m -16,32 h -16 v 16 h 16 v -16 m 0,0 h 16 v -16 h -16 v 16 M 201,360 h 16 v -16 h -16 v 16 m 0,16 v 16 h 16 v -16 h -16 m 0,16 h -16 v 16 h 16 v -16 m 0,-32 h -16 v 16 h 16 v -16 m -16,-16 h 16 v -16 h -16 v 16 m 32,-16 v -16 h -16 v 16 h 16 m 16,-32 h -16 v 16 h 16 v -16 m 0,-32 h -16 v 16 h 16 v -16 m -32,16 v 16 h 16 v -16 h -16 m 96,0 v 16 h 16 v -16 h -16 m 16,-16 v -16 h -16 v 16 h 16 m -32,0 v 16 h 16 v -16 h -16 m -16,16 v -16 h -16 v 16 h 16 m 0,0 v 16 h 16 v -16 h -16 m -16,16 v -16 h -16 v 16 h 16 m 0,-32 v -16 h -16 v 16 h 16 m 16,0 h 16 v -16 h -16 v 16 m 144,128 h -16 v 16 h 16 v -16 m 0,0 h 16 v -16 h -16 v 16 m 16,-48 h -16 v 16 h 16 v -16 m 0,-32 h -16 v 16 h 16 v -16 m -32,48 v 16 h 16 v -16 h -16 m 0,-32 v 16 h 16 v -16 z"
                 inkscape:connector-curvature="0"
                 style="fill:#0000ff;stroke:none" />
              <path
                 id="path930"
                 d="m 457,424 h 16 v -16 h -16 v 16 m 32,48 v 16 h -16 v 16 h -80 v -16 h -32 v -16 h -16 v -32 h -16 v 48 h 16 v 16 h 16 v 16 h 16 v 16 h 96 v -16 h 32 v -16 h 16 v -48 h -16 v 16 h -16 m -32,-80 h -16 v 16 h 16 v -16 m 16,-80 v 16 h 48 v -32 h -16 v 16 h -32 m -112,48 h -16 v 16 h 16 v -16 m -16,-16 h -16 v 16 h 16 v -16 m 128,-48 h -16 v 16 h 16 z"
                 inkscape:connector-curvature="0"
                 style="fill:#808000;stroke:none" />
              <path
                 id="path932"
                 d="m 233,488 h -16 v 16 H 89 v 16 H 73 v 16 h 144 v -16 h 16 v -32 m 32,-48 h -16 v 32 h 16 v -32 m 0,0 h 16 v -16 h -16 v 16 M 201,248 v 16 h 16 v -16 h -16 m 0,16 h -16 v 16 h 16 v -16 m -80,32 v 32 h 48 v -16 h 16 v -16 z"
                 inkscape:connector-curvature="0"
                 style="fill:#800000;stroke:none" />
              <path
                 id="path934"
                 d="m 121,328 v -32 h 64 v -16 -16 h 16 V 248 H 73 v 272 h 16 v -16 h 128 v -16 h 16 v -16 h 16 v -32 h 16 v -16 h 16 V 312 h -32 v 112 h -16 v 16 h -16 v 16 h -96 z"
                 inkscape:connector-curvature="0"
                 style="fill:#ff0000;stroke:none" />
              <path
                 id="path936"
                 d="m 137,136 v -16 h -16 v -16 h -16 v 128 h 16 v -96 h 16 m 16,-48 h -16 v 16 h 16 V 88 M 121,56 v 16 h 16 V 56 h -16 m 144,80 v -16 h -16 v 16 h 16 m -64,48 h -16 v 16 h 16 v -16 m -16,-16 v -16 h -16 v 16 h 16 m -16,-32 v -16 h -16 v 16 h 16 M 297,56 h -16 v 176 h 16 V 56 m 192,160 v -48 h -16 v 48 h 16 m -16,16 v -16 h -16 v 16 h 16 m 0,-64 v -16 h -16 v 16 h 16 m -32,-32 h -16 v 16 h 16 V 136 M 377,88 h -16 v 48 h 16 16 V 120 H 377 V 88 m 0,0 h 16 V 72 h -16 v 16 m 64,-32 v 16 h 16 V 56 h -16 m 48,48 V 72 h -16 v 32 z"
                 inkscape:connector-curvature="0"
                 style="fill:#808080;stroke:none" />
              <path
                 id="path938"
                 d="m 249,56 v 32 h -16 v 32 h -16 v 32 h -16 v 32 16 H 185 V 184 168 H 169 V 152 136 H 153 V 120 104 H 137 V 88 72 H 121 V 56 H 89 v 176 h 16 V 104 h 16 v 16 h 16 v 16 16 h 16 v 32 h 16 v 32 h 16 v 16 h 16 v -16 h 16 v -32 h 16 v -32 h 16 v -16 -16 h 16 v 16 96 h 16 V 56 h -32 m 128,128 h -32 v 32 h 16 v 16 h 96 v -16 h 16 v -48 h -16 v -16 h -16 -16 v 16 h 16 v 16 h 16 v 16 h -16 v 16 h -64 v -32 m 16,-48 h -16 v 16 h 48 V 136 H 393 M 377,88 V 72 h -32 v 64 h 16 V 88 h 16 m 64,-16 v 16 h 16 v 16 h 16 V 72 h -16 -16 m 0,0 V 56 h -64 v 16 h 16 z"
                 inkscape:connector-curvature="0"
                 style="fill:#c0c0c0;stroke:none" />
              <path
                 id="path940"
                 d="m 441,360 v 32 h 16 v 16 h 16 v 16 16 h -16 v 16 h -64 v -16 h -16 v -16 h -48 v 16 h 16 v 32 h 16 v 16 h 32 v 16 h 80 v -16 h 16 v -16 h 16 v -16 h 16 v -64 h -16 v -16 h -32 v -16 h -32 m 32,-96 V 248 H 361 v 16 h -16 v 16 h -16 v 64 h 16 v 16 h 16 v -48 h 16 v -16 h 80 16 v 16 h 32 v -16 h 16 v -16 h -16 v -16 z"
                 inkscape:connector-curvature="0"
                 style="fill:#ffff00;stroke:none" />
            </g>
          </g>
        </g>
      </g>
    </g>
  </g>
</svg>
